<svg id="Layer_1" data-name="Layer 1" xmlns="http://www.w3.org/2000/svg" viewBox="0 0 1677.52 416.28"><path d="M1342.91,569.9c-3.36,2-6.9,3.78-10.05,6.07a40.75,40.75,0,0,1-22.12,7.93c-4.29.26-8.58.63-12.84,1.19a23.2,23.2,0,0,0-5.14,1.67c-6,2.52-12.71,4.65-19,2.1-1-2.61-.73-4.44.75-5.75,1.7-1.5,3.5-3.21,5.56-3.89,3.84-1.29,8.29-.65,12.1-2.21,8.08-3.54,13.77-9.69,18.11-17.14a14.43,14.43,0,0,0,1.21-13.24c-2.2-1-4-.37-5.75,1.28-4.25,4-8.87,7.56-12.87,11.77-7,7.34-13.67,15-20.36,22.61a22.3,22.3,0,0,0-3.31,5.49c-9.26,20.51-18.37,41.09-27.71,61.57q-9.06,19.88-18.63,39.51c-6.1,12.51-12.36,25-20.86,36.08-4.9,6.47-15,17.88-24.09,14.32-4.07-1.67-6-3.92-5.46-8.17a35.7,35.7,0,0,1,3.28-11.36,164.43,164.43,0,0,1,16.89-26.9c10.47-13.73,21.07-27.39,32.58-40.25a27.34,27.34,0,0,0,4.15-6.7c6.29-15.29,12.44-30.64,18.6-46,3.26-8.12,6.44-16.28,9.64-24.43a9.27,9.27,0,0,0,.19-1.67c-6.16,4.34-11.62,8.05-18.57,10.44-8.91,3.11-14-2.17-17.21-10.18-3.56,2.66-6.76,5.21-10.11,7.53-8.48,6.16-21.95,10.09-28.63-.73-2.33,1-3.76,3.13-5.29,5-6.89,8-24.85,30.93-35.49,30.62-3.63,0-5.48-1.69-5.72-5.42-.45-6.82-.2-13.63,1.85-20.19,2.51-8,5.31-15.94,7.94-23.93a17.74,17.74,0,0,0,.3-3c-4.59,4.65-8.53,8.91-12.77,12.84-5.09,4.72-10.2,9.58-17.2,11.38a22.76,22.76,0,0,1-6.84.6,5,5,0,0,1-4.56-4.6,24.18,24.18,0,0,1,.44-7.89,48.92,48.92,0,0,1,23.27-29.32,10.17,10.17,0,0,0-2.81-.77c-6.44.47-12.9-.12-19.38.94-5.21.86-10.63.43-16,.47-9.66.09-19.33.18-29,.11-2.93,0-4.71.92-6.53,3.42-9.07,12.47-18.25,24.86-27.78,37-9.23,11.75-18.45,23.57-28.57,34.53-11.71,12.69-22.94,25.92-36.43,36.9-5.4,4.4-10.22,9.51-15.55,14-6.22,5.25-12.53,10.41-19.12,15.16-18.45,12.73-37.49,25.53-59.51,31.06-21.36,6.44-45.62,2.68-62.17-13-10.67-10.35-15.5-26-15.42-40.64.13-5.66-.28-11.37.26-17,2.71-23.33,10-45.87,19.5-67.27,4.7-10.74,9.95-21.25,14.95-31.87a20.23,20.23,0,0,0,.6-2c-4.3-.69-8.42-1.56-12.67-1.83-9.08-.59-18.22-.62-27-3.44-7.21-1.66-7.69-5.09-6.22-11.51.75-3.28,2.75-6.39,4.63-9.28a152.31,152.31,0,0,1,22.56-26.51,488.94,488.94,0,0,1,54.26-46.86c22.1-17.42,45.83-32.54,69.26-48.06a63.38,63.38,0,0,0,8.08-6.55c8.86-8.31,17.33-17.05,26.47-25,12.87-11.25,26-22.22,40.91-30.79a74.4,74.4,0,0,1,15.89-6.74c3.2-1,7-.39,10.41,0,9,1.11,16.53,2,25.62,4.3-16.7,6.38-31.81,10-45.31,21.41,11.29-3.16,22.13-8,33.4-11.34a67,67,0,0,1,18.42-3.5c5-.13,9.89-.87,14.85-1.06a60.32,60.32,0,0,1,23.8,4.05c22.21,7.59,34.92,31.66,28,54.3-13.7,52.85-41.88,100-71.7,145.3a37.39,37.39,0,0,0,4.17.37c9.29-.32,18.57-.82,27.86-1,15.59-.5,31.34.46,46.84-1.49,3.25-.47,6.42-1.47,9.77-1.33,3.61.14,5.07,1.08,5.12,3.37,0,2.56-2,4.73-4.8,5.38-17,2.53-30.08,11.94-34.77,28.88-.7,2.37.31,4.17,1.64,6,3,.72,5.13-1,7-2.82,8.86-8.77,17.71-17.56,26.34-26.56a31,31,0,0,0,5.08-7.85c19.49-37.95,35.76-77.84,60.22-113,4.75-6.79,9.78-13.47,17-18.37h5.82c1.57,4.54.14,8.62-1.3,12.63a173.19,173.19,0,0,1-13.81,29.12c-10,17-20.32,33.79-30.67,50.57-3.91,6.34-8.18,12.45-12.42,18.58-4.57,6.61-7.25,14.12-10.51,21.35-6.61,14.62-12.87,29.37-17.71,44.7-1.33,4.57-3.14,9.44-1.15,14.11,4.43-.66,7.52-3.34,10.13-6.16,6.54-7.07,12.69-14.5,19-21.79,4.27-4.92,7.18-10.68,10.18-16.4a81.2,81.2,0,0,1,12.88-17.66c2-2.11,4.16-3.27,7.1-2.12s4.64,4.21,3.16,7.18c-4.34,8.19-10.5,15.29-15.79,22.87-1.8,2.52-1.72,2.58,1,5.45,13.54-4.3,25-21.65,35.12-31.43,1.29-1.33,2.34-2.81,4.16-3.46a9.8,9.8,0,0,1,1.94.59c3.67,2,4.3,3.69,2,7.16A138.42,138.42,0,0,1,1227.54,568c-1.47,1.77-3.17,3.61-2,6.24,1.38,3,3.3,5.58,6.78,6,3.8.43,7.66.34,11.22-1.44,6.27-3.13,11.74-7.44,17-12a8.42,8.42,0,0,0,1.57-3c2.45-5.78,4.85-11.59,7.33-17.36a11.48,11.48,0,0,1,11.76-7.32c5.56.25,8,4,5.73,9.13-2.91,7-6.85,13.56-8.87,20.86l-.25.16.15-.26a18,18,0,0,0,2.77-1.89c4.87-4.79,9.51-9.83,14.57-14.4a75.72,75.72,0,0,1,10.82-7.87,16.31,16.31,0,0,1,10.08-2c3.26.26,5.11,2.06,5.51,5.32a20.44,20.44,0,0,1-2,10.62c-2.9,6.75-6.42,13.11-11.78,18.28-.82.79-1.55,1.67-2.55,2.76,4.59,1.41,8.47-.24,12.3-1.48,8-2.58,15-7,22-11.39,5.58-3.46,10.38-7.53,12.9-13.9a37.74,37.74,0,0,1,4.12-6.79c4-6.26,10-6.17,14.69-.53a6,6,0,0,1-.8,5.62c-3.2,5-6.33,10.11-9.56,15.12-4,6.26-8.13,12.47-12.09,18.54,2.15,2.94,3.47,3.6,6,2.77a21.15,21.15,0,0,0,5.38-2.51c6.09-4.3,12.07-8.76,18.08-13.17,1.61-1.18,3.14-2.46,4.77-3.61,7.11-5,9.51-12.9,12.51-20.4a5.36,5.36,0,0,0,0-3.45c-2.07-6.15-4.52-12.11-10.43-16.27-1,.6-2.15,1-2.78,1.81-2.94,3.81-6.73,4.51-11.13,3.38-5.46-4.81-5.82-9.21-1.32-16.08,4.48-6.71,9.8-5.18,15.2-1.23l24.82-2.1c7.78-17.34,15.48-34.43,22.9-51.89,2.72-6.44,6.23-8,12.19-6.87a12.9,12.9,0,0,1,2.84,4.76c-6.37,18.38-16.23,35.47-24.74,53.78,8.21.35,15.54-.58,23.56-1,8-.2,16-.05,24-.24,6-.15,11.94-.88,17.9-.83,6.8.06,13.59.65,20.38,1.12.86.05,1.68.74,3.61,1.65-8.29,1-15.31-.3-23.37.67-9.63,1.09-19.33.13-28.88,1.2-13.17,1.42-26,.33-39.17,1.32-2.8,5.55-5.71,10.94-8.29,16.47-15.7,33.56-32.36,66.7-43.55,102.11a22.72,22.72,0,0,0-1.21,6.8,10.18,10.18,0,0,0,1.26,4.2c.32.72,1.18,1.18,1.62,1.87,2.61,4.12-2.42,8.45-5.46,4a9,9,0,0,1-1.27-4.16c-.44-6.18.71-12.17,2.1-18.19,4.39-20.49,12.71-39.66,19.36-59.34-2-.37-3,.89-4,1.78a121.19,121.19,0,0,1-20.84,14.43c-6.44,4-20.24,6.79-20.25-4.52-.31-4.62,2-8.61,2.33-13.08.12-.31.24-.62.37-.93ZM1222,661.05a7.41,7.41,0,0,0-1.61,1.15c-6.42,8-13.12,15.85-19.12,24.17-7.07,9.79-13.66,19.93-20.17,30.1-2.46,3.84-4.14,8.18-6.06,12.07,3.33,3.89,3.81,4.09,7.35,2.19,10-6.47,15.29-17.84,20.6-28,6.22-12.39,12-25,17.88-37.57a20.88,20.88,0,0,0,1-4.23ZM1039.83,545.28c28.7-43.76,56.16-89.17,73.45-138.79a72.64,72.64,0,0,0,3.35-12.82,67.51,67.51,0,0,0,.14-12.48,33.52,33.52,0,0,0-11.26-23.56c-16.36-14.85-40.42-11.39-60-6.09A215.53,215.53,0,0,0,1007.8,365c-10.28,4.9-21.15,8.81-29.79,16.67-7.81,7.22-16,14-23.56,21.52-9.36,9.46-18.94,18.73-28,28.46-12.66,14.24-24.71,29.15-36.48,44.14-15.55,20.44-29.7,41.88-43.54,63.5a30.75,30.75,0,0,0-1.84,4.1c7.73.6,14.8,1.27,21.89,1.68,10.6.61,21.25-.32,31.85,1.14,4.58.63,9.31.23,14,.23C954.9,546,997.25,547.62,1039.83,545.28Zm-2.21,3.51c-56.93,0-113.63,0-170.54,0a234.19,234.19,0,0,1-25.36-1.27,18,18,0,0,0-1.73,2.07c-10.75,19.4-21,39.08-28.69,59.91-9,24.22-16.21,51.24-9.23,77,9.08,29.93,42,36.13,67.9,27,20.3-6.89,37.17-20.09,54.08-32.79,4.87-3.72,9.09-8.28,13.8-12.22,14.35-12,26.66-26,38.93-40A849.43,849.43,0,0,0,1037.62,548.79ZM918.12,416.86l-1.1-.94c-28.62,19.72-57.13,39.8-82.64,63.48-11.89,9.79-22.1,21.15-31.53,33.24-3.24,4.15-6.27,8.57-7.79,13.78-1.28,4.37-.25,7.06,3.75,9.09a26.91,26.91,0,0,0,6,2.3c8.33,1.8,16.68,4,25.25,4A720.69,720.69,0,0,1,918.12,416.86Zm489.51,102.68-.77-1c-6.9,1.92-14.31.46-21.56,3.62,2.74,3.42,5.23,6.43,7.61,9.52s3.65,6.7,5.28,10.55Q1402.92,530.89,1407.63,519.54ZM1010.8,357.43l-.33.73c.26.11.55.35.74.28s.24-.45.35-.7Z" transform="translate(-120.04 -330.89)"/><path d="M510.21,546.41c-1.75,6.87-6,12.21-9.64,18-2.65,4.22-5.26,8.46-7.7,12.8-1.59,2.83-1.43,2.92-.42,7.18,2.68-1.94,5.44-3.48,7.62-5.61,5.22-5.12,10.11-10.58,15.24-15.8s10.05-10.15,15.26-15c1.77-1.65,4.09-2.7,5.71-3.74,5.44.37,7.3,3.83,8.93,7.58-2.62,10.87-9.67,20.33-10.09,32,3.63.59,5.85-1.55,7.91-3.14,6-4.68,11.86-9.62,17.54-14.72,5.6-5.61,8.59-13.34,12.86-19.94,1.63-2.65,4-4.47,7.32-4.49,5.63,0,8.88,4.74,6.5,9.85a56.14,56.14,0,0,1-4.37,7.22c-5.75,8.87-12.44,17.52-17.12,27,1.65,3.23,4.11,2.83,6.23,1.93a41.1,41.1,0,0,0,9.19-4.84c8-6.15,15.82-12.61,23.63-19a8.89,8.89,0,0,0,2.24-3.23c1.5-3.31,2.79-6.72,4.26-10a11.08,11.08,0,0,0,.14-8.24,27.68,27.68,0,0,0-10.23-14.23c-3.15,3.51-5.68,6.84-11,6-4.8-.64-7.49-4.53-6.39-9.27,1.82-9.35,8.82-16.11,17.39-8.4l25.14-2c6.55-13.51,12.24-27.24,18.45-40.89,1.68-3.78,3.26-7.6,4.93-11.39,2.16-4.9,5.23-8,11.47-6.65,2.68,2,3.82,4.39,2.15,8-2.56,5.54-4.61,11.31-7.21,16.83C651,491.48,645,502.16,640,513.78c8,.34,14.84-.52,22.59-.93,8.16-.19,16.33-.05,24.49-.24,5.63-.13,11.26-.89,16.89-.83,7.29.08,14.58.66,21.87,1.11a3.27,3.27,0,0,1,2.29,1.79c-17,.85-34.17,0-51.11,1.75-12,1.22-23.92.57-35.88,1-2.49-.06-4,1.21-5,3.36C630.71,532,625,543,619.82,554.3c-7.55,16.38-14.85,32.88-22.05,49.43a200,200,0,0,0-11.32,32.2c-1.13,4.66-2.53,9.26,1.14,13.63,1.32,1.57.52,3.3-1.66,5.37-4.55-1.33-4.81-1.77-5.08-5.95-.59-9.1,2-17.68,4.25-26.3,4.62-17.43,11.11-34.22,17.54-51a8.08,8.08,0,0,0,.11-1.47c-4.38,3.36-8.36,6.66-12.59,9.61-6.24,4.33-12.36,9-19.93,10.84a15.3,15.3,0,0,1-6.87.39c-9-1.8-6.61-11-4.19-18.07-2.36.17-3.54,1.55-4.89,2.65a104.35,104.35,0,0,1-18.88,12.73,17.11,17.11,0,0,1-6.11,1.71c-5.32.43-7-1.36-7.34-6.88s1.32-10.44,3.12-15.39c1.62-4.48,3.58-8.83,5.58-13.69a9.19,9.19,0,0,0-4.54,2.86c-10.07,9.61-19.5,20.12-31.44,27.48a15.17,15.17,0,0,1-7.08,1.86c-3.56.2-5.42-1.83-5.63-5.51-.15-5.42,2.35-9.31,4-14.45a20.32,20.32,0,0,0-3.5,1.41c-12.3,8.42-24.5,17-36.86,25.33-33.4,22.72-67.53,44.33-101.88,65.58-41.93,25.59-84.69,50.25-129.86,69.73-13.52,5.79-27.2,11.16-41.43,14.94-42.91,11.2-63-1.22-46.75-46.7,9.64-27.7,29.62-50.38,49.86-71,5.69-5.58,11.88-10.65,17.94-15.84,5.54-4.74,11-9.58,16.88-13.94q16.53-12.35,33.46-24.12c6.66-4.61,13.74-8.61,20.59-13a41.5,41.5,0,0,0,3.93-3.34c-6.54-.82-11.83-.11-18.22-.44-43.45-1.59-76.42-30.57-53.21-74.55a122.32,122.32,0,0,1,20.69-29.74c5.88-6.34,11.63-12.8,17.78-18.87,13.27-12.76,28.28-23.66,43.19-34.41,31.09-21.25,65-38.57,101.42-48.74,24-6.46,57.62-10.35,75.94,10,5.56,6.25,6.91,13.55,4.78,21.75-5.42,20.25-21.77,34.34-36.24,48.33-6.18,5.53-12.85,10.51-19.4,15.6-.61.48-1.93.06-3.85.06a34.15,34.15,0,0,1,2.63-3.33c6.3-5.91,12.8-11.63,18.95-17.7a129.32,129.32,0,0,0,22.12-28.72c6.16-10.35,12.55-27.71-.24-35.78A26.85,26.85,0,0,0,431,354.8c-53.54-2-139.08,46.73-179.86,80.85-21.63,17.77-55.79,49.13-51.14,79.71,1,7.62,5.63,13.35,11.67,17.86C229,546,255.05,549,276.14,549c6.46-.18,12.9-.93,19.33-1.53,2.68-.24,4.68.47,5.44,2.28,1,2.45.13,6.53-1.75,7.73-17.14,6.85-33.07,16.06-48.23,26.44-43.68,30.39-89.43,63-114.12,111.65a66.12,66.12,0,0,0-7,35.11,12.21,12.21,0,0,0,9.07,11.21c4.83,1.43,9.63,1.17,14.7.41A110.7,110.7,0,0,0,175.11,737c41.33-14.47,79.88-35.37,118-56.64,66.25-37.24,130.32-78.22,193.67-120.16a11.81,11.81,0,0,0,4.49-5.12c1.58-3.27,3.25-6.52,5-9.69a7.44,7.44,0,0,1,7.9-4A6.54,6.54,0,0,1,510.21,546.41Zm114.5-28.11c-8.08,2.1-15.76.77-23.57,4.09,5.71,5.91,11.5,11,13,19.3C618.38,534.56,620.73,526.79,624.71,518.3Z" transform="translate(-120.04 -330.89)"/><path d="M1534.58,562.85c-3.76-.57-5.7,1.67-7.67,3.17a254.42,254.42,0,0,0-26.13,22.3,11.16,11.16,0,0,1-4,2.83c-4.13,1.36-7.88-1.36-8.31-6.1-.37-4.11-.7-8.3,1.26-12.24a19,19,0,0,0,.85-3.55c-3,2.19-5.44,4-8,5.79-6.68,4.6-13.12,9.61-21.25,11.59-4.46,1.09-5.19,1-9.05-2.21a15.16,15.16,0,0,1,1.74-10.46c3-5.65,5.84-11.38,8.39-17.45a280.34,280.34,0,0,1-34.88,25.78c-3.14,2-7,2.7-10.2,3.87-12.82-5-7.13-19.76.51-26.63,8.63-8.09,19-13.26,30.27-16.32,4.09-1.12,8.89-1.82,12.89,1.2a14.62,14.62,0,0,0,2.74-1.7c3.25-3.36,7.39-2.8,11.28-2.3s6.12,4.63,5,8.59c-2.79,10.24-8.45,19-14.25,27.7-1.82,2.73-1.9,2.74-2.34,6a7.19,7.19,0,0,0,2.25-.61c9.16-6.57,18.34-13.11,27.37-19.85,2.5-1.88,4.38-4.57,6.81-6.58,2-1.65,4.22-3.45,6.63-4.1,4.48-1.21,7.37,1.91,6.61,6.58a40.57,40.57,0,0,1-1.49,4.81c3.83-2.47,6.81-4.52,9.9-6.37,5.67-3.39,11-7.4,17.54-9.14,5.33-1.43,6.77-.71,9,5-1,3.43-2,7.06-3,10.7-3.43,11.15,5.74,15,14.93,16.93,4.38.79,8.87.92,13.26,1.64,12.91,2.13,25.91,1,38.86,1.06,9.94.17,19.84-1.06,29.68-2.5C1665,579,1688,576.21,1711.08,574c6.42-.67,12.83-1.47,19.24-2.15,5.47-.12,10.91-.78,16.36-1.3,12.64-.64,25.32-.09,38-.29,3.29,0,6.09,1.31,8.74,2.94.52,4.91,0,5.76-4.31,5.71a128.74,128.74,0,0,1-16.38-.88c-6.54-.91-13.3-.47-20-.3-11.46.29-23,.33-34.34,1.43-7.3.7-14.59.45-21.86,1-13.52,1.32-27,2.72-40.58,3.69-6.91.67-13.82,1.39-20.71,2.22-7.78.53-15.61.68-23.33,1.66-12.61,1.59-25.24,1.06-37.86,1a69.88,69.88,0,0,1-25.1-5.09,22.09,22.09,0,0,1-10.46-8.16C1536.12,571.73,1535.5,567.31,1534.58,562.85ZM1442,556a88.31,88.31,0,0,0-15.07,9.94c.95.36,1.37.67,1.53.56,4.37-2.91,8.73-5.84,13-8.85.37-.26.27-1.18.38-1.8l.49-.11Z" transform="translate(-120.04 -330.89)"/><path d="M677.79,557.8c-6.52,5.13-12.92,10.42-19.59,15.35a132,132,0,0,1-14.56,9.41c-3.13,1.73-6.78,2.49-9.86,3.57-6.16-2.27-8.18-6.6-7.26-12.5,2-15,23.41-26.62,36.76-29.93a45.94,45.94,0,0,1,10.83-.82c1.15,0,2.3,1.13,3.64,1.85a5.28,5.28,0,0,0,1.42-1c3.26-4.32,7.91-3.88,12.34-3.32,4.21.53,6.6,4.8,5,9.11A113.52,113.52,0,0,1,690,564.45c-2.82,5.26-6.3,10.15-9.42,15.25a12.9,12.9,0,0,0-.94,2.79l.88.69c9.74-5.85,18.64-12.95,27.72-19.76a12.42,12.42,0,0,0,2.91-3.91c2.46-4.48,4.65-9.12,7.22-13.55,3.43-5.87,8.45-6.38,13.39-1.54,1,2.91.07,5.54-1.46,8-3.58,5.77-7.29,11.46-10.81,17.26-2,3.25-3.75,6.64-5.54,10-.79,1.48-.69,1.53.32,4.63,1.47-.8,3.09-1.29,4.19-2.34,4.46-4.21,8.77-8.58,13.12-12.92,7.43-7.41,14.77-14.91,22.32-22.19,1.47-1.41,3.7-2,6-3.25l6.39,5c1.52,4.09.22,7-.88,10-2.64,7.11-5.31,14.21-7.89,21.35a21.44,21.44,0,0,0-.56,3.74c1.38,0,2.64.38,3.45-.07a45.6,45.6,0,0,0,7.52-4.82c10.52-8.93,20.56-17.78,30.83-27.12l2.29,2a34.58,34.58,0,0,1-3.25,3.86c-11.89,10.58-23.76,21.19-37.37,29.61-4.06,2.51-8.43,3.84-13.17,2.68a6.74,6.74,0,0,1-2.51-5.3c-1-11.75,4.43-20.94,8.87-31.78-2.54,1.06-3.69,2.66-5,4-4.65,4.53-9.07,9.32-13.87,13.69s-10,8.7-15.3,12.72a14,14,0,0,1-9.68,3.27c-3.26-.27-4.93-1.72-5-5,.15-4.25.83-7.06,1.65-11.57-3.3,2.39-5.85,4.35-8.51,6.16-6.29,4.26-12.41,8.76-20,10.78-3.64,1-6.49.48-9.25-1.94a11.63,11.63,0,0,1,1-8.62c2.93-5.91,6.07-11.73,8.53-17.86L680,556l.22-.29-.1.41ZM644,565.5c5.49-1.15,11.88-5.67,14.75-9.71A125.87,125.87,0,0,0,644,565.5Z" transform="translate(-120.04 -330.89)"/><path d="M1530.45,707.68c-.16-1.28-.34-2.08-.35-2.88,0-7.82,0-15.64,0-24,11.34-1.81,24.2.29,23.37,14.4-.27,5.27-2.67,9.21-7.7,11.27C1540.94,708.48,1535.94,707.73,1530.45,707.68Zm5.38-5.14c6.38.8,9.32-.16,11.12-3.35s1.43-8.19-.69-10.91c-2.43-3.12-5.37-3.78-10.43-2.24Z" transform="translate(-120.04 -330.89)"/><path d="M1792.33,697.15c1.84,3.43,3.49,6.49,5.11,9.55.06.1-.08.31-.24.87l-5,.27c-1.18-2-2.26-4-3.56-5.89-1.15-1.66-1.52-4.07-4.14-4.83-1.66,3.26-.06,6.71-1.29,10.27l-3.7.42c-1.55-1.54-1.75-21.34-.51-27.06,6-.67,16.62-1.65,18.27,6.15a8,8,0,0,1-3.32,8.75C1793.47,696,1793,696.52,1792.33,697.15Zm-8.28-4.38a29.5,29.5,0,0,0,5.53-.4c3.91-1.14,2.62-5.62-.35-6.94a5.22,5.22,0,0,0-5.18.48Z" transform="translate(-120.04 -330.89)"/><path d="M1693.64,708a13.64,13.64,0,0,1-13.73-14c.22-18.4,27.85-18.09,27.66.22C1707.38,702.25,1701.56,708,1693.64,708Zm-.13-4.94c5.07.09,8.57-3.49,8.64-8.83-.05-11.87-16.26-12.29-16.83-.47C1685.16,699,1688.59,702.93,1693.51,703Z" transform="translate(-120.04 -330.89)"/><path d="M1415.26,680.74h6c3.13,8.87,6.2,17.55,9.34,26.46a9.85,9.85,0,0,1-5,.41l-2.54-4.9h-9.62l-2.34,4.76h-5.27Zm6.25,16.81c-1.12-3.15-1.18-5.76-4.2-8.32-.21,3.38-2.19,5.4-1.73,8.32Z" transform="translate(-120.04 -330.89)"/><path d="M1499.5,707.62h-5.19c-2.73-3-5.59-6.21-9.23-10.24-.24,4-.41,6.87-.61,10.07l-3.62.29c-1.25-1.21-1.53-17.87-.68-26.6,1.27-1,2.59-.45,4.29-.39.19,3.18.36,6.11.6,10.22l9.13-10.19h6.4c-4.29,5.26-6.92,8.44-11.09,13.35l10.7,12.53Z" transform="translate(-120.04 -330.89)"/><path d="M1364.77,687.92l-4.87.3c-1.75-2-3.35-4.1-6.34-2.81-1.18.51-1.3.7-1.52,4.18,3,1.48,6.69,2.62,9.75,4.14a6.78,6.78,0,0,1,2.87,8.64c-1.43,3.94-5.52,6-10.62,5.47s-7.26-2.9-7.8-8.33l4.68-.29c1.62,2.58,3.1,5.07,6.33,3.66a3.83,3.83,0,0,0,2.1-2.42,3.68,3.68,0,0,0-1.36-2.83c-2.57-1.61-6.06-2-8.65-3.58a7.18,7.18,0,0,1-1.59-10.81c2.87-3.15,6.73-3.54,10.6-2.69C1361.81,681.3,1364.26,683.39,1364.77,687.92Z" transform="translate(-120.04 -330.89)"/><path d="M1466.81,688.71l-4.75.32c-5.93-4.84-10-5.21-13.53-1.34a9.58,9.58,0,0,0,.21,13.09c3.53,3.46,8,2.92,13.23-1.68,1.44,0,3.26-.27,4.69.46-2,6.17-7.34,9.14-14.49,8.17a13.29,13.29,0,0,1-11.37-13.11C1440,679.09,1461.39,674.45,1466.81,688.71Z" transform="translate(-120.04 -330.89)"/><path d="M1262,680.44l5,.35c.31,6.05,0,11.6.31,17.54.24,3.17,2.2,4.7,5.32,4.69,6.06,0,5.53-5.74,5.42-10.21,0-3.81,0-7.62,0-11.89l4.09-.5c.45.64.79.9.8,1.16.07,6,.35,11.95.09,17.9-.22,5.15-4.59,8.44-10.45,8.45s-10.22-3.31-10.46-8.47C1261.75,693.35,1262,687.21,1262,680.44Z" transform="translate(-120.04 -330.89)"/><path d="M1724.92,697.36c-.15,3.36-.29,6.44-.46,10.11l-5.2.26c-.24-9.22-.09-17.92-.12-26.8,7.61-1.37,19.72-1.46,19.52,8.49-.35,4.1-3.32,6.91-8,7.48C1728.88,697.11,1727.1,697.19,1724.92,697.36Zm.14-12.12v7.64c3.33-.57,8.1.3,7.86-4.16C1732.85,684.31,1728.23,685.26,1725.06,685.24Z" transform="translate(-120.04 -330.89)"/><path d="M1580.35,707.51H1566c-1-3.87-1.18-21-.35-26.39a35.55,35.55,0,0,1,14.88.13c0,1-.1,2.09-.17,3.41l-9.32.58v6.3l8.33.57c.08,1.17.15,2.23.24,3.66l-8.64.79v6.13l9.43.64Z" transform="translate(-120.04 -330.89)"/><path d="M1763.86,692.22v3.53l-8,.75v6.34h9.28v4.74H1751c-1.08-3.24-1.36-20.14-.39-26.84h14.52v4l-9.34.5v6.3Z" transform="translate(-120.04 -330.89)"/><path d="M1611.52,680.77h5.57l-10.15,27a33,33,0,0,1-5.65-.24c-3.27-8.64-6.55-17.31-10.08-26.62l5.39-.59c2.42,6.58,4.76,12.9,7.09,19.22l.94.07C1606.92,693.37,1609.21,687.11,1611.52,680.77Z" transform="translate(-120.04 -330.89)"/><path d="M1628.6,680.7h14.49c.1,1.17.2,2.37.34,4l-9.93.49v6.4l8.26.5c.07,1.21.14,2.28.23,3.72l-8.54.68c-.09,2-.18,3.87-.3,6.28l10,.46v4.42H1629C1628,704.13,1627.69,688.26,1628.6,680.7Z" transform="translate(-120.04 -330.89)"/><path d="M1388.76,707.62h-5.3c-.47-7.29,0-14.56-.32-22.06l-6.35-.76v-4.19c6.09-.42,12-.08,18.28-.21.23,1.46.41,2.67.65,4.21l-7,1Z" transform="translate(-120.04 -330.89)"/><path d="M1234.41,680.68h15.49v4.21l-10.32.5v6.1l7.94.63c.07,1.17.14,2.24.22,3.64l-8.38.83v10.89l-4.95.24Z" transform="translate(-120.04 -330.89)"/><path d="M1321.77,680.73h4.88v22l8.47.44v4.4h-12.95C1321.17,704,1320.91,688,1321.77,680.73Z" transform="translate(-120.04 -330.89)"/><path d="M1296.91,680.7h4.67c.37,7.31,0,14.42.25,22.06l8.13.48v4.26h-12.9C1296.11,703.65,1296,686,1296.91,680.7Z" transform="translate(-120.04 -330.89)"/><path d="M1656.24,680.92a8,8,0,0,1,4.75-.16v21.13c2.88,2.1,6,.36,8.87,1.74.06,1.06.13,2.28.22,3.84h-13.37c-1-4.32-.32-8.78-.45-13.19S1656.24,685.67,1656.24,680.92Z" transform="translate(-120.04 -330.89)"/></svg>